<svg xmlns="http://www.w3.org/2000/svg" viewBox="0 0 53 53"><title>logo</title><path d="M26.5,0A26.5,26.5,0,1,0,53,26.5,26.49,26.49,0,0,0,26.5,0ZM51.28,26.5A24.78,24.78,0,1,1,26.5,1.72h0A24.79,24.79,0,0,1,51.28,26.5Z" fill="#6f6f6f"/><path d="M26.5,10.78v.87A14.86,14.86,0,0,1,41.35,26.5h.86A15.72,15.72,0,0,0,26.5,10.78m0,30.57A14.86,14.86,0,0,1,11.65,26.5h-.87A15.74,15.74,0,0,0,26.5,42.22" fill="#6f6f6f"/><path d="M39.34,15.26c.36.38.88,1,1.17,1.39l5.37-3.41c-.27-.35-.69-.88-1-1.26l-3.4,2.25-.24.2.18-.25,1.5-3-1.06-1.06-3,1.5-.26.17.2-.23L41,8.16c-.4-.34-.77-.64-1.26-1l-3.4,5.37c.43.33,1,.82,1.36,1.15L41,12l.21-.15-.15.21Z" fill="#6f6f6f"/><path d="M27.17,8.46l1.46-3.28.1-.29,0,.3.15,4.39c.52,0,1,.12,1.57.2l-.23-6.5c-.74-.08-1.47-.14-2.2-.17L26.55,6.7,26.5,7l-.05-.26L25,3.12c-.73,0-1.46.08-2.19.17l-.23,6.5c.52-.09,1.05-.16,1.56-.21l.16-4.39,0-.3.1.29,1.46,3.29Z" fill="#6f6f6f"/><path d="M15.31,13.64c.85-.89,1.33-1.92.48-2.91a1.65,1.65,0,0,0-1.88-.38l-.06,0,0,0a1.57,1.57,0,0,0-.54-1.63,1.61,1.61,0,0,0-1.18-.33c-.8.08-1.41.63-3.08,2.48-.5.57-1.23,1.45-1.67,2L12,17.21C13.49,15.53,14.11,14.9,15.31,13.64Zm-6-1.06A30,30,0,0,1,11.68,10a1.15,1.15,0,0,1,.48-.3.57.57,0,0,1,.68.43h0a1,1,0,0,1-.34.84c-.49.55-2.28,2.43-2.28,2.43Zm1.8,1.7,2.31-2.43A2,2,0,0,1,14,11.4a.6.6,0,0,1,.62,0,.56.56,0,0,1,.24.57,1.83,1.83,0,0,1-.45.71l-2.31,2.47Z" fill="#6f6f6f"/><path d="M26.5,10.78V26.5H10.78A15.72,15.72,0,0,1,26.49,10.78Z" fill="#0066b1"/><path d="M42.22,26.5A15.71,15.71,0,0,1,26.51,42.21h0V26.5Z" fill="#0066b1"/></svg>